<?xml version="1.0" standalone="no"?>
<!DOCTYPE svg PUBLIC "-//W3C//DTD SVG 20010904//EN"
 "http://www.w3.org/TR/2001/REC-SVG-20010904/DTD/svg10.dtd">
<svg version="1.0" xmlns="http://www.w3.org/2000/svg"
 width="1258.000000pt" height="544.000000pt" viewBox="0 0 1258.000000 544.000000"
 preserveAspectRatio="xMidYMid meet">
<metadata>
Created by potrace 1.16, written by Peter Selinger 2001-2019
</metadata>
<g transform="translate(0.000000,544.000000) scale(0.100000,-0.100000)"
fill="#000000" stroke="none">
<path d="M5320 4453 c-263 -44 -484 -209 -594 -443 -49 -103 -67 -177 -73
-300 -17 -326 154 -609 457 -754 41 -20 80 -36 87 -36 10 0 13 34 13 148 l0
148 -65 64 -65 64 0 153 c0 125 -3 153 -14 153 -8 0 -26 14 -40 31 -60 70 -15
169 77 169 100 0 140 -114 62 -182 -24 -21 -25 -25 -25 -158 l0 -136 65 -64
65 -64 0 -173 c0 -196 -10 -175 93 -188 l47 -6 0 279 0 279 -24 12 c-56 31
-65 113 -17 162 41 41 106 41 143 2 15 -16 29 -40 33 -54 9 -36 -18 -96 -49
-111 l-26 -11 0 -279 0 -280 43 7 c23 3 54 8 70 11 l27 6 0 192 0 192 65 64
65 64 0 137 0 137 -30 30 c-70 71 -11 196 84 178 37 -7 80 -49 89 -85 9 -35
-17 -89 -53 -109 l-30 -17 0 -150 0 -149 -62 -63 -61 -62 1 -166 c0 -92 3
-169 6 -172 10 -11 154 64 228 119 136 101 242 255 290 424 29 102 31 294 5
394 -96 358 -417 605 -780 599 -45 -1 -93 -4 -107 -6z"/>
<path d="M8800 2425 l0 -485 65 0 65 0 0 250 c0 271 5 303 53 335 33 21 110
22 143 0 49 -32 54 -63 54 -335 l0 -250 66 0 65 0 -3 278 c-3 298 -7 322 -61
381 -68 74 -225 81 -299 14 -17 -15 -18 -9 -18 140 l0 157 -65 0 -65 0 0 -485z"/>
<path d="M9439 2861 c-37 -38 -39 -82 -4 -116 51 -52 145 -16 145 55 0 40 -47
90 -85 90 -16 0 -38 -12 -56 -29z"/>
<path d="M7060 2705 l0 -55 -35 0 -35 0 0 -55 0 -55 35 0 35 0 0 -242 c0 -212
2 -247 18 -277 29 -59 62 -76 158 -80 l84 -3 0 61 0 61 -49 0 c-80 0 -81 5
-81 262 l0 218 65 0 65 0 0 55 0 55 -65 0 -65 0 0 55 0 55 -65 0 -65 0 0 -55z"/>
<path d="M4693 2659 c-135 -13 -255 -111 -294 -241 -59 -192 28 -394 195 -457
198 -74 398 3 484 187 23 49 27 70 27 152 0 83 -4 103 -29 157 -67 146 -206
219 -383 202z m111 -120 c98 -27 163 -110 173 -219 10 -108 -41 -204 -131
-246 -116 -54 -250 -11 -309 99 -17 34 -22 59 -22 128 0 78 3 90 30 134 59 95
154 133 259 104z"/>
<path d="M6145 2659 c-66 -9 -113 -29 -158 -69 l-37 -32 0 46 0 46 -60 0 -60
0 0 -470 0 -470 65 0 65 0 0 155 0 154 44 -30 c25 -16 75 -37 112 -46 159 -39
330 40 401 186 26 51 28 66 28 171 0 105 -2 120 -28 171 -66 136 -212 210
-372 188z m113 -121 c33 -8 60 -25 92 -57 53 -53 70 -100 70 -194 0 -167 -143
-272 -307 -226 -141 39 -205 226 -127 370 54 99 152 138 272 107z"/>
<path d="M7633 2659 c-234 -31 -361 -313 -248 -546 87 -177 348 -236 520 -118
43 30 115 116 115 138 0 3 -22 18 -49 31 l-48 25 -24 -37 c-40 -61 -96 -93
-173 -99 -76 -7 -134 11 -180 53 -32 30 -65 97 -66 132 l0 22 275 0 275 0 5
23 c7 25 -10 142 -25 183 -52 136 -208 216 -377 193z m152 -128 c65 -30 115
-96 115 -152 0 -18 -9 -19 -204 -19 -124 0 -207 4 -211 10 -7 12 29 97 53 124
48 54 171 72 247 37z"/>
<path d="M8398 2658 c-112 -14 -212 -89 -265 -196 -25 -52 -28 -67 -28 -167 0
-100 3 -115 28 -166 30 -62 93 -126 154 -157 53 -28 155 -45 217 -37 61 8 162
54 196 90 l24 25 -39 40 -38 39 -33 -26 c-101 -77 -231 -70 -314 16 -52 53
-70 102 -70 187 1 97 46 176 122 215 81 41 174 33 254 -21 l41 -29 38 39 39
40 -24 25 c-59 63 -187 98 -302 83z"/>
<path d="M9944 2659 c-224 -28 -352 -278 -263 -514 80 -214 386 -284 559 -128
28 25 59 62 70 82 l18 37 -48 27 -48 27 -26 -40 c-55 -83 -165 -120 -271 -90
-76 21 -145 104 -145 175 l0 25 274 0 274 0 5 22 c10 38 -12 156 -38 208 -63
125 -200 189 -361 169z m144 -124 c49 -21 81 -52 103 -100 36 -78 45 -75 -192
-75 l-211 0 7 33 c10 47 55 109 100 134 48 27 137 31 193 8z"/>
<path d="M2158 2647 c-58 -22 -124 -64 -152 -98 -123 -145 -120 -368 5 -504
130 -141 364 -150 515 -21 113 96 150 298 82 443 -29 62 -99 132 -163 163 -62
29 -226 39 -287 17z m229 -126 c81 -41 124 -118 124 -223 0 -83 -23 -140 -79
-190 -49 -44 -108 -62 -178 -55 -88 9 -150 55 -187 137 -25 57 -26 158 -2 218
21 51 92 116 143 131 52 14 132 6 179 -18z"/>
<path d="M2835 2644 c-110 -40 -157 -162 -104 -272 27 -54 70 -83 179 -118
102 -33 130 -57 130 -114 0 -68 -58 -110 -134 -96 -43 8 -86 57 -86 97 l0 29
-66 0 -67 0 6 -45 c13 -90 59 -148 141 -175 50 -16 181 -9 222 13 80 42 122
123 111 218 -12 97 -63 145 -199 186 -101 30 -132 56 -132 110 0 89 136 116
179 34 8 -17 15 -39 15 -51 0 -18 6 -20 60 -20 l60 0 0 33 c0 40 -30 105 -61
134 -56 52 -169 68 -254 37z"/>
<path d="M3453 2639 c-157 -60 -249 -241 -214 -421 35 -178 164 -281 351 -281
94 0 139 15 203 65 40 32 44 27 26 -37 -17 -61 -47 -95 -107 -122 -48 -23 -64
-25 -145 -21 -73 3 -104 10 -151 31 -32 15 -60 26 -61 25 -2 -2 -12 -23 -25
-47 -26 -52 -21 -59 58 -90 84 -33 183 -45 271 -32 141 21 227 84 273 200 21
53 22 74 26 399 l4 342 -66 0 -66 0 0 -42 0 -41 -22 21 c-13 11 -48 32 -78 46
-72 34 -197 36 -277 5z m253 -117 c78 -40 123 -119 124 -216 0 -79 -16 -128
-59 -177 -118 -139 -346 -89 -397 87 -40 138 22 275 145 321 47 18 137 11 187
-15z"/>
<path d="M10535 2644 c-109 -40 -157 -162 -105 -270 27 -54 75 -87 180 -120
102 -33 130 -57 130 -114 0 -68 -58 -110 -134 -96 -43 8 -86 57 -86 97 l0 29
-66 0 -67 0 7 -47 c10 -76 49 -131 113 -160 48 -22 65 -25 137 -21 47 3 94 11
112 21 80 42 122 123 111 218 -12 99 -65 147 -209 189 -91 27 -122 54 -122
107 0 64 82 106 145 73 22 -12 49 -61 49 -90 0 -18 6 -20 60 -20 l60 0 0 33
c0 40 -30 105 -61 134 -56 52 -169 68 -254 37z"/>
<path d="M4080 2295 l0 -355 65 0 65 0 0 246 c0 201 3 252 15 279 19 38 51 55
105 55 l40 0 0 66 0 67 -49 -5 c-28 -3 -62 -14 -80 -27 l-31 -22 0 25 c0 25
-2 26 -65 26 l-65 0 0 -355z"/>
<path d="M5200 2388 c0 -272 5 -312 43 -369 59 -90 236 -107 320 -31 16 14 19
14 17 2 -7 -46 -2 -50 60 -50 l60 0 0 355 0 355 -65 0 -65 0 0 -252 c0 -236
-1 -255 -20 -286 -25 -40 -74 -63 -121 -55 -94 14 -99 32 -99 343 l0 250 -65
0 -65 0 0 -262z"/>
<path d="M9430 2295 l0 -355 65 0 65 0 0 355 0 355 -65 0 -65 0 0 -355z"/>
<path d="M6650 2320 l0 -60 140 0 140 0 0 60 0 60 -140 0 -140 0 0 -60z"/>
</g>
</svg>
